<svg width="32.596" height="47.148" xmlns="http://www.w3.org/2000/svg">
 <g>
  <title>Layer 1</title>
  <g id="svg_1">
   <path class="a" d="m32.1,16.3c0,7.18 -10.7,23.934 -14.487,29.645a1.572,1.572 0 0 1 -2.622,0c-3.791,-5.713 -14.491,-22.467 -14.491,-29.645a15.8,15.8 0 0 1 31.6,0z" fill="#fff" stroke="#c8c8c8" id="svg_2"/>
   <circle class="b" cx="16.5" cy="16.226" r="10" fill="#e11900" id="svg_3"/>
  </g>
  <rect fill="#fff" stroke="#000" x="-242.70203" y="-245.22601" width="0" height="1" id="svg_4"/>
  <path stroke="#e11900" fill="#fff" d="m10.15745,14.35449l4.2153,0l0,-3.99466l4.32409,0l0,3.99466l4.2153,0l0,4.09777l-4.2153,0l0,3.99466l-4.32409,0l0,-3.99466l-4.2153,0l0,-4.09777z" id="svg_5"/>
 </g>

</svg>